<mxfile host="Electron" agent="Mozilla/5.0 (Windows NT 10.0; Win64; x64) AppleWebKit/537.36 (KHTML, like Gecko) draw.io/28.0.6 Chrome/138.0.7204.100 Electron/37.2.3 Safari/537.36" version="28.0.6">
  <diagram name="Page-1" id="QjvMaOU4poNHOvwqBwPB">
    <mxGraphModel dx="1463" dy="902" grid="1" gridSize="10" guides="1" tooltips="1" connect="1" arrows="1" fold="1" page="1" pageScale="1" pageWidth="1600" pageHeight="900" background="none" math="0" shadow="1">
      <root>
        <mxCell id="0" />
        <mxCell id="1" parent="0" />
        <mxCell id="IdrEboHf67YKtTeVyYi7-5" value="" style="rounded=0;whiteSpace=wrap;html=1;fillColor=none;dashed=1;strokeColor=light-dark(#636363, #ededed);" parent="1" vertex="1">
          <mxGeometry x="1270" y="121" width="220" height="660" as="geometry" />
        </mxCell>
        <mxCell id="IdrEboHf67YKtTeVyYi7-4" value="" style="rounded=0;whiteSpace=wrap;html=1;fillColor=none;dashed=1;strokeColor=light-dark(#636363, #ededed);" parent="1" vertex="1">
          <mxGeometry x="410" y="120" width="780" height="660" as="geometry" />
        </mxCell>
        <mxCell id="IdrEboHf67YKtTeVyYi7-29" value="" style="rounded=0;whiteSpace=wrap;html=1;fillColor=none;strokeColor=#666666;fontColor=#333333;" parent="1" vertex="1">
          <mxGeometry x="696" y="205" width="200" height="546" as="geometry" />
        </mxCell>
        <mxCell id="IdrEboHf67YKtTeVyYi7-1" value="" style="rounded=0;whiteSpace=wrap;html=1;fillColor=none;dashed=1;strokeColor=light-dark(#636363, #ededed);" parent="1" vertex="1">
          <mxGeometry x="90" y="120" width="220" height="660" as="geometry" />
        </mxCell>
        <mxCell id="IdrEboHf67YKtTeVyYi7-2" value="&lt;font style=&quot;font-size: 20px;&quot;&gt;&lt;b style=&quot;&quot;&gt;Sources&lt;/b&gt;&lt;/font&gt;" style="rounded=0;whiteSpace=wrap;html=1;" parent="1" vertex="1">
          <mxGeometry x="120" y="103" width="160" height="30" as="geometry" />
        </mxCell>
        <mxCell id="IdrEboHf67YKtTeVyYi7-6" value="&lt;b&gt;&lt;font style=&quot;font-size: 20px;&quot;&gt;Consume&lt;/font&gt;&lt;/b&gt;&amp;nbsp;" style="rounded=0;whiteSpace=wrap;html=1;" parent="1" vertex="1">
          <mxGeometry x="1300" y="104" width="160" height="30" as="geometry" />
        </mxCell>
        <mxCell id="IdrEboHf67YKtTeVyYi7-7" value="&lt;font style=&quot;font-size: 20px;&quot;&gt;&lt;b style=&quot;&quot;&gt;Data Warehouse&lt;/b&gt;&lt;/font&gt;" style="rounded=0;whiteSpace=wrap;html=1;" parent="1" vertex="1">
          <mxGeometry x="665" y="99" width="210" height="40" as="geometry" />
        </mxCell>
        <mxCell id="IdrEboHf67YKtTeVyYi7-8" value="&lt;b&gt;&lt;font style=&quot;font-size: 15px;&quot;&gt;CRM&lt;/font&gt;&lt;/b&gt;" style="image;aspect=fixed;html=1;points=[];align=center;fontSize=12;image=img/lib/azure2/general/Folder_Blank.svg;" parent="1" vertex="1">
          <mxGeometry x="166" y="270" width="69" height="56.00000000000001" as="geometry" />
        </mxCell>
        <mxCell id="IdrEboHf67YKtTeVyYi7-9" value="&lt;font style=&quot;font-size: 18px;&quot;&gt;ERP&lt;/font&gt;" style="image;aspect=fixed;html=1;points=[];align=center;fontSize=12;image=img/lib/azure2/general/Folder_Blank.svg;" parent="1" vertex="1">
          <mxGeometry x="166" y="490" width="69" height="56.00000000000001" as="geometry" />
        </mxCell>
        <mxCell id="IdrEboHf67YKtTeVyYi7-10" value="" style="sketch=0;aspect=fixed;pointerEvents=1;shadow=0;dashed=0;html=1;strokeColor=none;labelPosition=center;verticalLabelPosition=bottom;verticalAlign=top;align=center;fillColor=#00188D;shape=mxgraph.azure.file" parent="1" vertex="1">
          <mxGeometry x="220" y="310" width="37.6" height="40" as="geometry" />
        </mxCell>
        <mxCell id="IdrEboHf67YKtTeVyYi7-11" value="" style="sketch=0;aspect=fixed;pointerEvents=1;shadow=0;dashed=0;html=1;strokeColor=none;labelPosition=center;verticalLabelPosition=bottom;verticalAlign=top;align=center;fillColor=#00188D;shape=mxgraph.azure.file" parent="1" vertex="1">
          <mxGeometry x="220" y="530" width="37.6" height="40" as="geometry" />
        </mxCell>
        <mxCell id="IdrEboHf67YKtTeVyYi7-12" value="" style="line;strokeWidth=2;direction=south;html=1;rotation=-90;" parent="1" vertex="1">
          <mxGeometry x="155.5" y="530" width="90" height="150" as="geometry" />
        </mxCell>
        <mxCell id="IdrEboHf67YKtTeVyYi7-13" value="&lt;span style=&quot;font-size: 15px;&quot;&gt;&lt;b&gt;Object Type: &lt;/b&gt;CSV File&lt;/span&gt;" style="text;html=1;align=center;verticalAlign=middle;whiteSpace=wrap;rounded=0;" parent="1" vertex="1">
          <mxGeometry x="111.5" y="640" width="160" height="30" as="geometry" />
        </mxCell>
        <mxCell id="IdrEboHf67YKtTeVyYi7-15" value="&lt;span style=&quot;font-size: 15px;&quot;&gt;&lt;b&gt;Interface: &lt;/b&gt;Files in Folder&lt;/span&gt;" style="text;html=1;align=center;verticalAlign=middle;whiteSpace=wrap;rounded=0;" parent="1" vertex="1">
          <mxGeometry x="110" y="670" width="180" height="30" as="geometry" />
        </mxCell>
        <mxCell id="IdrEboHf67YKtTeVyYi7-18" value="" style="shape=flexArrow;endArrow=classic;html=1;rounded=0;endWidth=28.333333333333336;endSize=18.85;width=25;fillColor=#dae8fc;strokeColor=#6c8ebf;" parent="1" edge="1">
          <mxGeometry width="50" height="50" relative="1" as="geometry">
            <mxPoint x="1170" y="420" as="sourcePoint" />
            <mxPoint x="1318" y="420" as="targetPoint" />
            <Array as="points">
              <mxPoint x="1230" y="420" />
            </Array>
          </mxGeometry>
        </mxCell>
        <mxCell id="IdrEboHf67YKtTeVyYi7-20" value="&lt;b&gt;&lt;font style=&quot;font-size: 16px;&quot;&gt;Bronze Layer&lt;/font&gt;&lt;/b&gt;" style="rounded=0;whiteSpace=wrap;html=1;fillColor=#ffe6cc;strokeColor=#d79b00;" parent="1" vertex="1">
          <mxGeometry x="436" y="150" width="200" height="50" as="geometry" />
        </mxCell>
        <mxCell id="IdrEboHf67YKtTeVyYi7-25" value="&lt;b&gt;&lt;font style=&quot;font-size: 16px;&quot;&gt;Silver Layer&lt;/font&gt;&lt;/b&gt;" style="rounded=0;whiteSpace=wrap;html=1;fillColor=#f5f5f5;strokeColor=#666666;fontColor=#333333;" parent="1" vertex="1">
          <mxGeometry x="696" y="150" width="200" height="50" as="geometry" />
        </mxCell>
        <mxCell id="IdrEboHf67YKtTeVyYi7-26" value="&lt;b&gt;&lt;font style=&quot;font-size: 16px;&quot;&gt;Gold Layer&lt;/font&gt;&lt;/b&gt;" style="rounded=0;whiteSpace=wrap;html=1;fillColor=#fff2cc;strokeColor=#d6b656;" parent="1" vertex="1">
          <mxGeometry x="956" y="150" width="200" height="50" as="geometry" />
        </mxCell>
        <mxCell id="IdrEboHf67YKtTeVyYi7-30" value="" style="rounded=0;whiteSpace=wrap;html=1;fillColor=none;strokeColor=#d6b656;" parent="1" vertex="1">
          <mxGeometry x="957" y="205" width="200" height="545" as="geometry" />
        </mxCell>
        <mxCell id="IdrEboHf67YKtTeVyYi7-28" value="" style="rounded=0;whiteSpace=wrap;html=1;fillColor=none;strokeColor=#d79b00;" parent="1" vertex="1">
          <mxGeometry x="437" y="205" width="200" height="543" as="geometry" />
        </mxCell>
        <mxCell id="IdrEboHf67YKtTeVyYi7-34" value="" style="shape=flexArrow;endArrow=classic;html=1;rounded=0;entryX=0.12;entryY=0.504;entryDx=0;entryDy=0;entryPerimeter=0;" parent="1" edge="1">
          <mxGeometry width="50" height="50" relative="1" as="geometry">
            <mxPoint x="610" y="460" as="sourcePoint" />
            <mxPoint x="696" y="460.18399999999974" as="targetPoint" />
          </mxGeometry>
        </mxCell>
        <mxCell id="IdrEboHf67YKtTeVyYi7-35" value="" style="shape=flexArrow;endArrow=classic;html=1;rounded=0;entryX=0.12;entryY=0.504;entryDx=0;entryDy=0;entryPerimeter=0;" parent="1" edge="1">
          <mxGeometry width="50" height="50" relative="1" as="geometry">
            <mxPoint x="873" y="460" as="sourcePoint" />
            <mxPoint x="957" y="460.18399999999974" as="targetPoint" />
          </mxGeometry>
        </mxCell>
        <mxCell id="IdrEboHf67YKtTeVyYi7-40" value="&lt;b&gt;&lt;font style=&quot;font-size: 18px;&quot;&gt;Raw Data&lt;/font&gt;&lt;/b&gt;" style="html=1;verticalLabelPosition=bottom;align=center;labelBackgroundColor=#ffffff;verticalAlign=top;strokeWidth=2;strokeColor=#d79b00;shadow=0;dashed=0;shape=mxgraph.ios7.icons.data;fillColor=#ffe6cc;" parent="1" vertex="1">
          <mxGeometry x="490.5" y="240" width="93" height="100" as="geometry" />
        </mxCell>
        <mxCell id="IdrEboHf67YKtTeVyYi7-41" value="&lt;b&gt;&lt;font style=&quot;font-size: 18px;&quot;&gt;Clean Standardized&lt;/font&gt;&lt;/b&gt;&lt;div&gt;&lt;b&gt;&lt;font style=&quot;font-size: 18px;&quot;&gt;&amp;nbsp;data&lt;/font&gt;&lt;/b&gt;&lt;/div&gt;" style="html=1;verticalLabelPosition=bottom;align=center;labelBackgroundColor=#ffffff;verticalAlign=top;strokeWidth=2;strokeColor=#666666;shadow=0;dashed=0;shape=mxgraph.ios7.icons.data;fillColor=#f5f5f5;fontColor=#333333;" parent="1" vertex="1">
          <mxGeometry x="749.5" y="240" width="93" height="100" as="geometry" />
        </mxCell>
        <mxCell id="IdrEboHf67YKtTeVyYi7-42" value="&lt;b&gt;&lt;font style=&quot;font-size: 18px;&quot;&gt;Business-Ready Data&lt;/font&gt;&amp;nbsp;&lt;/b&gt;" style="html=1;verticalLabelPosition=bottom;align=center;labelBackgroundColor=#ffffff;verticalAlign=top;strokeWidth=2;strokeColor=#d6b656;shadow=0;dashed=0;shape=mxgraph.ios7.icons.data;fillColor=#fff2cc;" parent="1" vertex="1">
          <mxGeometry x="1011.5" y="240" width="93" height="100" as="geometry" />
        </mxCell>
        <mxCell id="IdrEboHf67YKtTeVyYi7-43" value="" style="shape=flexArrow;endArrow=classic;html=1;rounded=0;endWidth=28.333333333333336;endSize=18.85;width=25;fillColor=#dae8fc;strokeColor=#6c8ebf;" parent="1" edge="1">
          <mxGeometry width="50" height="50" relative="1" as="geometry">
            <mxPoint x="290" y="420" as="sourcePoint" />
            <mxPoint x="438" y="420" as="targetPoint" />
            <Array as="points">
              <mxPoint x="350" y="420" />
            </Array>
          </mxGeometry>
        </mxCell>
        <mxCell id="IdrEboHf67YKtTeVyYi7-44" value="" style="line;strokeWidth=2;html=1;" parent="1" vertex="1">
          <mxGeometry x="441" y="402" width="190" height="10" as="geometry" />
        </mxCell>
        <mxCell id="IdrEboHf67YKtTeVyYi7-45" value="" style="line;strokeWidth=2;html=1;" parent="1" vertex="1">
          <mxGeometry x="701" y="402" width="190" height="10" as="geometry" />
        </mxCell>
        <mxCell id="IdrEboHf67YKtTeVyYi7-47" value="" style="line;strokeWidth=2;html=1;" parent="1" vertex="1">
          <mxGeometry x="962" y="402" width="190" height="10" as="geometry" />
        </mxCell>
        <mxCell id="IdrEboHf67YKtTeVyYi7-49" value="&lt;font style=&quot;font-size: 16px;&quot;&gt;&lt;b style=&quot;&quot;&gt;Objext Type:&lt;/b&gt; Tables&lt;/font&gt;&lt;div&gt;&lt;b style=&quot;background-color: transparent; color: light-dark(rgb(0, 0, 0), rgb(255, 255, 255));&quot;&gt;&lt;font style=&quot;font-size: 16px;&quot;&gt;&lt;br&gt;&lt;/font&gt;&lt;/b&gt;&lt;/div&gt;&lt;div&gt;&lt;b style=&quot;background-color: transparent; color: light-dark(rgb(0, 0, 0), rgb(255, 255, 255));&quot;&gt;&lt;font style=&quot;font-size: 16px;&quot;&gt;Loads&lt;/font&gt;&lt;/b&gt;&lt;/div&gt;&lt;div&gt;&lt;ul&gt;&lt;li&gt;&lt;span style=&quot;font-size: 16px; background-color: transparent; color: light-dark(rgb(0, 0, 0), rgb(255, 255, 255));&quot;&gt;Batch Processing&lt;/span&gt;&lt;/li&gt;&lt;li&gt;&lt;span style=&quot;font-size: 16px; background-color: transparent; color: light-dark(rgb(0, 0, 0), rgb(255, 255, 255));&quot;&gt;&amp;nbsp;Full load&amp;nbsp;&lt;/span&gt;&lt;/li&gt;&lt;li&gt;&lt;font style=&quot;font-size: 16px;&quot;&gt;truncate &amp;amp; Insert&lt;/font&gt;&lt;/li&gt;&lt;/ul&gt;&lt;b&gt;&lt;font style=&quot;font-size: 16px;&quot;&gt;Transformation&amp;nbsp;&lt;/font&gt;&lt;/b&gt;&lt;/div&gt;&lt;div&gt;&lt;ul&gt;&lt;li&gt;&lt;font style=&quot;font-size: 16px;&quot;&gt;Data Cleansing&lt;/font&gt;&lt;/li&gt;&lt;li&gt;&lt;font style=&quot;font-size: 16px;&quot;&gt;Data Standardization&lt;/font&gt;&lt;/li&gt;&lt;li&gt;&lt;font style=&quot;font-size: 16px;&quot;&gt;Data Normalizations&amp;nbsp;&lt;/font&gt;&lt;/li&gt;&lt;li&gt;&lt;font style=&quot;font-size: 16px;&quot;&gt;Derived Columns&amp;nbsp;&lt;/font&gt;&lt;/li&gt;&lt;li&gt;&lt;font style=&quot;font-size: 16px;&quot;&gt;Data Enrichments&lt;b&gt;&amp;nbsp;&lt;/b&gt;&lt;/font&gt;&lt;/li&gt;&lt;/ul&gt;&lt;font style=&quot;font-size: 16px;&quot;&gt;&lt;b style=&quot;&quot;&gt;Data Modelling: &lt;/b&gt;None( As-is)&lt;/font&gt;&lt;br&gt;&lt;/div&gt;" style="text;html=1;align=left;verticalAlign=middle;whiteSpace=wrap;rounded=0;" parent="1" vertex="1">
          <mxGeometry x="699" y="560" width="194" height="30" as="geometry" />
        </mxCell>
        <mxCell id="IdrEboHf67YKtTeVyYi7-52" value="&lt;font style=&quot;font-size: 16px;&quot;&gt;&lt;b style=&quot;&quot;&gt;Objext Type:&lt;/b&gt; Tables&lt;/font&gt;&lt;div&gt;&lt;b&gt;&lt;font style=&quot;font-size: 16px;&quot;&gt;&lt;br&gt;&lt;/font&gt;&lt;/b&gt;&lt;/div&gt;&lt;div&gt;&lt;b&gt;&lt;font style=&quot;font-size: 16px;&quot;&gt;Loads&lt;/font&gt;&lt;/b&gt;&lt;/div&gt;&lt;div&gt;&lt;ul&gt;&lt;li&gt;&lt;span style=&quot;font-size: 16px; background-color: transparent; color: light-dark(rgb(0, 0, 0), rgb(255, 255, 255));&quot;&gt;Batch Processing&lt;/span&gt;&lt;/li&gt;&lt;li&gt;&lt;span style=&quot;font-size: 16px; background-color: transparent; color: light-dark(rgb(0, 0, 0), rgb(255, 255, 255));&quot;&gt;&amp;nbsp;Full load&amp;nbsp;&lt;/span&gt;&lt;/li&gt;&lt;li&gt;&lt;font style=&quot;font-size: 16px;&quot;&gt;truncate &amp;amp; Insert&lt;/font&gt;&lt;/li&gt;&lt;/ul&gt;&lt;b&gt;&lt;font style=&quot;font-size: 16px;&quot;&gt;No Transformation&amp;nbsp;&lt;/font&gt;&lt;/b&gt;&lt;/div&gt;&lt;div&gt;&lt;b style=&quot;background-color: transparent; color: light-dark(rgb(0, 0, 0), rgb(255, 255, 255)); font-size: 16px;&quot;&gt;&lt;br&gt;&lt;/b&gt;&lt;/div&gt;&lt;div&gt;&lt;b style=&quot;background-color: transparent; color: light-dark(rgb(0, 0, 0), rgb(255, 255, 255)); font-size: 16px;&quot;&gt;Data Modelling: &lt;/b&gt;&lt;span style=&quot;background-color: transparent; color: light-dark(rgb(0, 0, 0), rgb(255, 255, 255)); font-size: 16px;&quot;&gt;None( As-is)&lt;/span&gt;&lt;/div&gt;" style="text;html=1;align=left;verticalAlign=middle;whiteSpace=wrap;rounded=0;" parent="1" vertex="1">
          <mxGeometry x="441" y="510" width="194" height="30" as="geometry" />
        </mxCell>
        <mxCell id="IdrEboHf67YKtTeVyYi7-53" value="&lt;font style=&quot;font-size: 16px;&quot;&gt;&lt;b style=&quot;&quot;&gt;Objext Type:&lt;/b&gt;&amp;nbsp;Views&lt;/font&gt;&lt;div&gt;&lt;b style=&quot;background-color: transparent; color: light-dark(rgb(0, 0, 0), rgb(255, 255, 255));&quot;&gt;&lt;font style=&quot;font-size: 16px;&quot;&gt;&lt;br&gt;&lt;/font&gt;&lt;/b&gt;&lt;/div&gt;&lt;div&gt;&lt;b style=&quot;background-color: transparent; color: light-dark(rgb(0, 0, 0), rgb(255, 255, 255));&quot;&gt;&lt;font style=&quot;font-size: 16px;&quot;&gt;No Loads&amp;nbsp;&lt;/font&gt;&lt;/b&gt;&lt;/div&gt;&lt;div&gt;&lt;b style=&quot;background-color: transparent; color: light-dark(rgb(0, 0, 0), rgb(255, 255, 255));&quot;&gt;&lt;font style=&quot;font-size: 16px;&quot;&gt;&lt;br&gt;&lt;/font&gt;&lt;/b&gt;&lt;/div&gt;&lt;div&gt;&lt;b style=&quot;background-color: transparent; color: light-dark(rgb(0, 0, 0), rgb(255, 255, 255));&quot;&gt;&lt;font style=&quot;font-size: 16px;&quot;&gt;Transformation&amp;nbsp;&lt;/font&gt;&lt;/b&gt;&lt;div&gt;&lt;ul&gt;&lt;li&gt;&lt;span style=&quot;font-size: 16px; background-color: transparent; color: light-dark(rgb(0, 0, 0), rgb(255, 255, 255));&quot;&gt;Data Intergration&amp;nbsp;&lt;/span&gt;&lt;/li&gt;&lt;li&gt;&lt;span style=&quot;font-size: 16px;&quot;&gt;Aggregation&lt;/span&gt;&lt;/li&gt;&lt;li&gt;&lt;span style=&quot;font-size: 16px; background-color: transparent; color: light-dark(rgb(0, 0, 0), rgb(255, 255, 255));&quot;&gt;Business Logics&lt;/span&gt;&lt;b style=&quot;font-size: 16px; background-color: transparent; color: light-dark(rgb(0, 0, 0), rgb(255, 255, 255));&quot;&gt;&amp;nbsp;&lt;/b&gt;&lt;/li&gt;&lt;/ul&gt;&lt;b style=&quot;background-color: transparent; color: light-dark(rgb(0, 0, 0), rgb(255, 255, 255)); font-size: 16px;&quot;&gt;Data Model:&lt;/b&gt;&lt;/div&gt;&lt;/div&gt;&lt;div&gt;&lt;ul&gt;&lt;li&gt;&lt;b style=&quot;background-color: transparent; color: light-dark(rgb(0, 0, 0), rgb(255, 255, 255)); font-size: 16px;&quot;&gt;Star schema&lt;/b&gt;&lt;/li&gt;&lt;li&gt;&lt;b style=&quot;background-color: transparent; color: light-dark(rgb(0, 0, 0), rgb(255, 255, 255)); font-size: 16px;&quot;&gt;Flat Tables&lt;/b&gt;&lt;/li&gt;&lt;li&gt;&lt;b style=&quot;background-color: transparent; color: light-dark(rgb(0, 0, 0), rgb(255, 255, 255)); font-size: 16px;&quot;&gt;Aggregated Tables&amp;nbsp;&lt;span style=&quot;white-space: pre;&quot;&gt;&#x9;&lt;/span&gt;&lt;span style=&quot;white-space: pre;&quot;&gt;&#x9;&lt;/span&gt;&lt;/b&gt;&lt;/li&gt;&lt;/ul&gt;&lt;/div&gt;" style="text;html=1;align=left;verticalAlign=middle;whiteSpace=wrap;rounded=0;" parent="1" vertex="1">
          <mxGeometry x="962" y="546" width="294" height="30" as="geometry" />
        </mxCell>
        <mxCell id="IdrEboHf67YKtTeVyYi7-54" style="edgeStyle=orthogonalEdgeStyle;rounded=0;orthogonalLoop=1;jettySize=auto;html=1;" parent="1" source="IdrEboHf67YKtTeVyYi7-49" target="IdrEboHf67YKtTeVyYi7-49" edge="1">
          <mxGeometry relative="1" as="geometry" />
        </mxCell>
        <mxCell id="IdrEboHf67YKtTeVyYi7-55" style="edgeStyle=orthogonalEdgeStyle;rounded=0;orthogonalLoop=1;jettySize=auto;html=1;exitX=0.5;exitY=0;exitDx=0;exitDy=0;entryX=0.5;entryY=1;entryDx=0;entryDy=0;" parent="1" source="IdrEboHf67YKtTeVyYi7-52" target="IdrEboHf67YKtTeVyYi7-52" edge="1">
          <mxGeometry relative="1" as="geometry" />
        </mxCell>
        <mxCell id="IdrEboHf67YKtTeVyYi7-56" value="&lt;b&gt;&lt;font style=&quot;font-size: 18px;&quot;&gt;BI&amp;nbsp;&lt;br&gt;&amp;amp; Reporting&amp;nbsp;&lt;/font&gt;&lt;/b&gt;" style="image;aspect=fixed;html=1;points=[];align=center;fontSize=12;image=img/lib/azure2/analytics/Power_BI_Embedded.svg;imageBackground=none;labelBackgroundColor=none;" parent="1" vertex="1">
          <mxGeometry x="1350" y="170" width="75" height="100" as="geometry" />
        </mxCell>
        <mxCell id="IdrEboHf67YKtTeVyYi7-57" value="&lt;b&gt;&lt;font style=&quot;font-size: 18px;&quot;&gt;Ad-HOC&amp;nbsp;&lt;/font&gt;&lt;/b&gt;&lt;div&gt;&lt;b&gt;&lt;font style=&quot;font-size: 18px;&quot;&gt;SQL Queries&lt;/font&gt;&lt;/b&gt;&lt;/div&gt;" style="sketch=0;html=1;aspect=fixed;strokeColor=none;shadow=0;fillColor=#3B8DF1;verticalAlign=top;labelPosition=center;verticalLabelPosition=bottom;shape=mxgraph.gcp2.big_query" parent="1" vertex="1">
          <mxGeometry x="1350" y="389" width="90.08" height="91" as="geometry" />
        </mxCell>
        <mxCell id="IdrEboHf67YKtTeVyYi7-65" value="&lt;b&gt;&lt;font style=&quot;font-size: 18px;&quot;&gt;Machine Learning&amp;nbsp;&lt;/font&gt;&lt;/b&gt;" style="outlineConnect=0;dashed=0;verticalLabelPosition=bottom;verticalAlign=top;align=center;html=1;shape=mxgraph.aws3.machine_learning;fillColor=#2E73B8;gradientColor=none;" parent="1" vertex="1">
          <mxGeometry x="1356.79" y="598" width="76.5" height="93" as="geometry" />
        </mxCell>
      </root>
    </mxGraphModel>
  </diagram>
</mxfile>
